STARTFONT 2.1
FONT -DIGITAL-VT220-Bold-I-Normal-80col-20-200-150-75-c-200-iso10646-1
SIZE 20 75 75
FONTBOUNDINGBOX 26 20 -3 -4
STARTPROPERTIES 21
FOUNDRY "DIGITAL"
FAMILY_NAME "vt220"
WEIGHT_NAME "Bold"
RELATIVE_SETWIDTH 50
SLANT "I"
SETWIDTH_NAME "Normal"
ADD_STYLE_NAME "80col"
PIXEL_SIZE 20
POINT_SIZE 200
RESOLUTION_X 75
RESOLUTION_Y 75
SPACING "c"
CHARSET_REGISTRY "ISO10646"
CHARSET_ENCODING "1"
CAP_HEIGHT 14
X_HEIGHT 10
WEIGHT 10
QUAD_WIDTH 20
FONT_ASCENT 16
FONT_DESCENT 4
AVERAGE_WIDTH 200
ENDPROPERTIES
CHARS 237
STARTCHAR U+00FD
ENCODING 253
SWIDTH 1000 0
DWIDTH 20 0
BBX 26 20 -3 -4
BITMAP
00000000
00000000
00000000
00000000
00000000
00000000
00000000
00000000
00000000
00000000
00000000
00000000
00000000
00000000
00000000
00000000
00000000
00000000
00000000
00000000
ENDCHAR
STARTCHAR U+25A1
ENCODING 9633
SWIDTH 1000 0
DWIDTH 20 0
BBX 26 20 -3 -4
BITMAP
00000000
00000000
07fff800
0ffff000
0f00f000
0f00f000
1e01e000
1e01e000
1e01e000
3c03c000
3c03c000
3c03c000
78078000
78078000
7fff8000
ffff0000
00000000
00000000
00000000
00000000
ENDCHAR
STARTCHAR U+00FE
ENCODING 254
SWIDTH 1000 0
DWIDTH 20 0
BBX 26 20 -3 -4
BITMAP
00000000
00000000
07800000
0f000000
0f000000
0f000000
1eff8000
1eff8000
1f81e000
3f03c000
3f03c000
3f03c000
7bfe0000
7bfe0000
78000000
f0000000
f0000000
f0000000
e0000000
e0000000
ENDCHAR
STARTCHAR U+00FF
ENCODING 255
SWIDTH 1000 0
DWIDTH 20 0
BBX 26 20 -3 -4
BITMAP
00000000
00000000
01e1e000
03c3c000
00000000
00000000
1e078000
1e078000
1e078000
3c0f0000
3c3f0000
3c3f0000
1fee0000
1fee0000
001e0000
003c0000
f03c0000
f03c0000
7fe00000
7fe00000
ENDCHAR
STARTCHAR U+00FC
ENCODING 252
SWIDTH 1000 0
DWIDTH 20 0
BBX 26 20 -3 -4
BITMAP
00000000
00000000
01e1e000
03c3c000
00000000
00000000
1e078000
1e078000
1e078000
3c0f0000
3c0f0000
3c0f0000
781e0000
781e0000
1ffb8000
3ff70000
00000000
00000000
00000000
00000000
ENDCHAR
STARTCHAR U+00FB
ENCODING 251
SWIDTH 1000 0
DWIDTH 20 0
BBX 26 20 -3 -4
BITMAP
007f8000
007f8000
01e1e000
03c3c000
00000000
00000000
1e078000
1e078000
1e078000
3c0f0000
3c0f0000
3c0f0000
781e0000
781e0000
1ffb8000
3ff70000
00000000
00000000
00000000
00000000
ENDCHAR
STARTCHAR U+00FA
ENCODING 250
SWIDTH 1000 0
DWIDTH 20 0
BBX 26 20 -3 -4
BITMAP
00000000
00000000
001f8000
003f0000
03f00000
03f00000
1e078000
1e078000
1e078000
3c0f0000
3c0f0000
3c0f0000
781e0000
781e0000
1ffb8000
3ff70000
00000000
00000000
00000000
00000000
ENDCHAR
STARTCHAR U+00F9
ENCODING 249
SWIDTH 1000 0
DWIDTH 20 0
BBX 26 20 -3 -4
BITMAP
00000000
00000000
01f80000
03f00000
003f0000
003f0000
1e078000
1e078000
1e078000
3c0f0000
3c0f0000
3c0f0000
781e0000
781e0000
1ffb8000
3ff70000
00000000
00000000
00000000
00000000
ENDCHAR
STARTCHAR U+00F8
ENCODING 248
SWIDTH 1000 0
DWIDTH 20 0
BBX 26 20 -3 -4
BITMAP
00000000
00000000
00000000
00000000
0000f000
0000f000
07ff8000
07ff8000
1e1ee000
3c3dc000
3cf3c000
3cf3c000
7b878000
7b878000
1ffe0000
3ffc0000
f0000000
f0000000
00000000
00000000
ENDCHAR
STARTCHAR U+0153
ENCODING 339
SWIDTH 1000 0
DWIDTH 20 0
BBX 26 20 -3 -4
BITMAP
00000000
00000000
00000000
00000000
00000000
00000000
07ef8000
07ef8000
1e79e000
3cf3c000
3cffc000
3cffc000
79e00000
79e00000
1fbf8000
3f7f0000
00000000
00000000
00000000
00000000
ENDCHAR
STARTCHAR U+00F6
ENCODING 246
SWIDTH 1000 0
DWIDTH 20 0
BBX 26 20 -3 -4
BITMAP
00000000
00000000
01e1e000
03c3c000
00000000
00000000
07ff8000
07ff8000
1e01e000
3c03c000
3c03c000
3c03c000
78078000
78078000
1ffe0000
3ffc0000
00000000
00000000
00000000
00000000
ENDCHAR
STARTCHAR U+00F5
ENCODING 245
SWIDTH 1000 0
DWIDTH 20 0
BBX 26 20 -3 -4
BITMAP
01f9e000
01f9e000
079f8000
0f3f0000
00000000
00000000
07ff8000
07ff8000
1e01e000
3c03c000
3c03c000
3c03c000
78078000
78078000
1ffe0000
3ffc0000
00000000
00000000
00000000
00000000
ENDCHAR
STARTCHAR U+00F4
ENCODING 244
SWIDTH 1000 0
DWIDTH 20 0
BBX 26 20 -3 -4
BITMAP
007f8000
007f8000
01e1e000
03c3c000
00000000
00000000
07ff8000
07ff8000
1e01e000
3c03c000
3c03c000
3c03c000
78078000
78078000
1ffe0000
3ffc0000
00000000
00000000
00000000
00000000
ENDCHAR
STARTCHAR U+00F3
ENCODING 243
SWIDTH 1000 0
DWIDTH 20 0
BBX 26 20 -3 -4
BITMAP
00000000
00000000
001f8000
003f0000
03f00000
03f00000
07ff8000
07ff8000
1e01e000
3c03c000
3c03c000
3c03c000
78078000
78078000
1ffe0000
3ffc0000
00000000
00000000
00000000
00000000
ENDCHAR
STARTCHAR U+00F2
ENCODING 242
SWIDTH 1000 0
DWIDTH 20 0
BBX 26 20 -3 -4
BITMAP
00000000
00000000
007e0000
00fc0000
000fc000
000fc000
07ff8000
07ff8000
1e01e000
3c03c000
3c03c000
3c03c000
78078000
78078000
1ffe0000
3ffc0000
00000000
00000000
00000000
00000000
ENDCHAR
STARTCHAR U+00F1
ENCODING 241
SWIDTH 1000 0
DWIDTH 20 0
BBX 26 20 -3 -4
BITMAP
01f9e000
01f9e000
079f8000
0f3f0000
00000000
00000000
1eff8000
1eff8000
1f81e000
3f03c000
3c03c000
3c03c000
78078000
78078000
78078000
f00f0000
00000000
00000000
00000000
00000000
ENDCHAR
STARTCHAR U+00F0
ENCODING 240
SWIDTH 1000 0
DWIDTH 20 0
BBX 26 20 -3 -4
BITMAP
001e7800
001e7800
0007e000
000fc000
003cf000
003cf000
07fee000
07fee000
1e07e000
3c0fc000
3c03c000
3c03c000
781e0000
781e0000
1ff80000
3ff00000
00000000
00000000
00000000
00000000
ENDCHAR
STARTCHAR U+00EF
ENCODING 239
SWIDTH 1000 0
DWIDTH 20 0
BBX 26 20 -3 -4
BITMAP
00000000
00000000
01e1e000
03c3c000
00000000
00000000
01f80000
01f80000
00780000
00f00000
00f00000
00f00000
01e00000
01e00000
1ffe0000
3ffc0000
00000000
00000000
00000000
00000000
ENDCHAR
STARTCHAR U+00EE
ENCODING 238
SWIDTH 1000 0
DWIDTH 20 0
BBX 26 20 -3 -4
BITMAP
007f8000
007f8000
01e1e000
03c3c000
00000000
00000000
01f80000
01f80000
00780000
00f00000
00f00000
00f00000
01e00000
01e00000
1ffe0000
3ffc0000
00000000
00000000
00000000
00000000
ENDCHAR
STARTCHAR U+00ED
ENCODING 237
SWIDTH 1000 0
DWIDTH 20 0
BBX 26 20 -3 -4
BITMAP
00000000
00000000
001f8000
003f0000
03f00000
03f00000
01f80000
01f80000
00780000
00f00000
00f00000
00f00000
01e00000
01e00000
1ffe0000
3ffc0000
00000000
00000000
00000000
00000000
ENDCHAR
STARTCHAR U+00EC
ENCODING 236
SWIDTH 1000 0
DWIDTH 20 0
BBX 26 20 -3 -4
BITMAP
00000000
00000000
01f80000
03f00000
003f0000
003f0000
01f80000
01f80000
00780000
00f00000
00f00000
00f00000
01e00000
01e00000
1ffe0000
3ffc0000
00000000
00000000
00000000
00000000
ENDCHAR
STARTCHAR U+00EB
ENCODING 235
SWIDTH 1000 0
DWIDTH 20 0
BBX 26 20 -3 -4
BITMAP
00000000
00000000
01e1e000
03c3c000
00000000
00000000
07ff8000
07ff8000
1e01e000
3c03c000
3fffc000
3fffc000
78000000
78000000
1ffe0000
3ffc0000
00000000
00000000
00000000
00000000
ENDCHAR
STARTCHAR U+00EA
ENCODING 234
SWIDTH 1000 0
DWIDTH 20 0
BBX 26 20 -3 -4
BITMAP
007f8000
007f8000
01e1e000
03c3c000
00000000
00000000
07ff8000
07ff8000
1e01e000
3c03c000
3fffc000
3fffc000
78000000
78000000
1ffe0000
3ffc0000
00000000
00000000
00000000
00000000
ENDCHAR
STARTCHAR U+00E9
ENCODING 233
SWIDTH 1000 0
DWIDTH 20 0
BBX 26 20 -3 -4
BITMAP
00000000
00000000
001f8000
003f0000
03f00000
03f00000
07ff8000
07ff8000
1e01e000
3c03c000
3fffc000
3fffc000
78000000
78000000
1ffe0000
3ffc0000
00000000
00000000
00000000
00000000
ENDCHAR
STARTCHAR U+00E8
ENCODING 232
SWIDTH 1000 0
DWIDTH 20 0
BBX 26 20 -3 -4
BITMAP
00000000
00000000
007e0000
00fc0000
000fc000
000fc000
07ff8000
07ff8000
1e01e000
3c03c000
3fffc000
3fffc000
78000000
78000000
1ffe0000
3ffc0000
00000000
00000000
00000000
00000000
ENDCHAR
STARTCHAR U+00E7
ENCODING 231
SWIDTH 1000 0
DWIDTH 20 0
BBX 26 20 -3 -4
BITMAP
00000000
00000000
00000000
00000000
00000000
00000000
07ff8000
07ff8000
1e01e000
3c03c000
3c000000
3c000000
78078000
78078000
1ffe0000
3ffc0000
00f00000
00f00000
1fe00000
1fe00000
ENDCHAR
STARTCHAR U+00E6
ENCODING 230
SWIDTH 1000 0
DWIDTH 20 0
BBX 26 20 -3 -4
BITMAP
00000000
00000000
00000000
00000000
00000000
00000000
07ef8000
07ef8000
0079e000
00f3c000
0fffc000
0fffc000
79e00000
79e00000
1fff8000
3fff0000
00000000
00000000
00000000
00000000
ENDCHAR
STARTCHAR U+00E5
ENCODING 229
SWIDTH 1000 0
DWIDTH 20 0
BBX 26 20 -3 -4
BITMAP
007f8000
007f8000
01e1e000
03c3c000
00ff0000
00ff0000
07ff8000
07ff8000
0001e000
0003c000
0fffc000
0fffc000
781f8000
781f8000
1ffb8000
3ff70000
00000000
00000000
00000000
00000000
ENDCHAR
STARTCHAR U+00E4
ENCODING 228
SWIDTH 1000 0
DWIDTH 20 0
BBX 26 20 -3 -4
BITMAP
00000000
00000000
01e1e000
03c3c000
00000000
00000000
07ff8000
07ff8000
0001e000
0003c000
0fffc000
0fffc000
781f8000
781f8000
1ffb8000
3ff70000
00000000
00000000
00000000
00000000
ENDCHAR
STARTCHAR U+00E3
ENCODING 227
SWIDTH 1000 0
DWIDTH 20 0
BBX 26 20 -3 -4
BITMAP
007e7800
007e7800
01e7e000
03cfc000
00000000
00000000
07ff8000
07ff8000
0001e000
0003c000
0fffc000
0fffc000
781f8000
781f8000
1ffb8000
3ff70000
00000000
00000000
00000000
00000000
ENDCHAR
STARTCHAR U+00E2
ENCODING 226
SWIDTH 1000 0
DWIDTH 20 0
BBX 26 20 -3 -4
BITMAP
007f8000
007f8000
01e1e000
03c3c000
00000000
00000000
07ff8000
07ff8000
0001e000
0003c000
0fffc000
0fffc000
781f8000
781f8000
1ffb8000
3ff70000
00000000
00000000
00000000
00000000
ENDCHAR
STARTCHAR U+00E1
ENCODING 225
SWIDTH 1000 0
DWIDTH 20 0
BBX 26 20 -3 -4
BITMAP
00000000
00000000
001f8000
003f0000
03f00000
03f00000
07ff8000
07ff8000
0001e000
0003c000
0fffc000
0fffc000
781f8000
781f8000
1ffb8000
3ff70000
00000000
00000000
00000000
00000000
ENDCHAR
STARTCHAR U+00E0
ENCODING 224
SWIDTH 1000 0
DWIDTH 20 0
BBX 26 20 -3 -4
BITMAP
00000000
00000000
007e0000
00fc0000
000fc000
000fc000
07ff8000
07ff8000
0001e000
0003c000
0fffc000
0fffc000
781f8000
781f8000
1ffb8000
3ff70000
00000000
00000000
00000000
00000000
ENDCHAR
STARTCHAR U+00DF
ENCODING 223
SWIDTH 1000 0
DWIDTH 20 0
BBX 26 20 -3 -4
BITMAP
00000000
00000000
007f8000
00ff0000
03c3c000
03c3c000
1e078000
1e078000
1efe0000
3dfc0000
3c0f0000
3c0f0000
7b878000
7b878000
79fe0000
f3fc0000
f0000000
f0000000
00000000
00000000
ENDCHAR
STARTCHAR U+00DE
ENCODING 222
SWIDTH 1000 0
DWIDTH 20 0
BBX 26 20 -3 -4
BITMAP
00000000
00000000
07e00000
0fc00000
03ffc000
03ffc000
0781e000
0781e000
0781e000
0f03c000
0f03c000
0f03c000
1ffe0000
1ffe0000
7e000000
fc000000
00000000
00000000
00000000
00000000
ENDCHAR
STARTCHAR U+0178
ENCODING 376
SWIDTH 1000 0
DWIDTH 20 0
BBX 26 20 -3 -4
BITMAP
01e1e000
01e1e000
00000000
00000000
0f00f000
0f00f000
07878000
07878000
01ee0000
03dc0000
00f00000
00f00000
01e00000
01e00000
01e00000
03c00000
00000000
00000000
00000000
00000000
ENDCHAR
STARTCHAR U+00DC
ENCODING 220
SWIDTH 1000 0
DWIDTH 20 0
BBX 26 20 -3 -4
BITMAP
01e1e000
01e1e000
00000000
00000000
0f00f000
0f00f000
1e01e000
1e01e000
1e01e000
3c03c000
3c03c000
3c03c000
78078000
78078000
1ffe0000
3ffc0000
00000000
00000000
00000000
00000000
ENDCHAR
STARTCHAR U+00DB
ENCODING 219
SWIDTH 1000 0
DWIDTH 20 0
BBX 26 20 -3 -4
BITMAP
001e0000
001e0000
007b8000
00f70000
0f00f000
0f00f000
1e01e000
1e01e000
1e01e000
3c03c000
3c03c000
3c03c000
78078000
78078000
1ffe0000
3ffc0000
00000000
00000000
00000000
00000000
ENDCHAR
STARTCHAR U+00DA
ENCODING 218
SWIDTH 1000 0
DWIDTH 20 0
BBX 26 20 -3 -4
BITMAP
0007e000
0007e000
007e0000
00fc0000
0f00f000
0f00f000
1e01e000
1e01e000
1e01e000
3c03c000
3c03c000
3c03c000
78078000
78078000
1ffe0000
3ffc0000
00000000
00000000
00000000
00000000
ENDCHAR
STARTCHAR U+00D9
ENCODING 217
SWIDTH 1000 0
DWIDTH 20 0
BBX 26 20 -3 -4
BITMAP
01f80000
01f80000
001f8000
003f0000
0f00f000
0f00f000
1e01e000
1e01e000
1e01e000
3c03c000
3c03c000
3c03c000
78078000
78078000
1ffe0000
3ffc0000
00000000
00000000
00000000
00000000
ENDCHAR
STARTCHAR U+00D8
ENCODING 216
SWIDTH 1000 0
DWIDTH 20 0
BBX 26 20 -3 -4
BITMAP
00007800
00007800
01ffe000
03ffc000
0f03f000
0f03f000
1e1ee000
1e1ee000
1e79e000
3cf3c000
3dc3c000
3dc3c000
7e078000
7e078000
1ffe0000
3ffc0000
f0000000
f0000000
00000000
00000000
ENDCHAR
STARTCHAR U+0152
ENCODING 338
SWIDTH 1000 0
DWIDTH 20 0
BBX 26 20 -3 -4
BITMAP
00000000
00000000
01fbf800
03f7f000
0f3c0000
0f3c0000
1e780000
1e780000
1e7f8000
3cff0000
3cf00000
3cf00000
79e00000
79e00000
1fbf8000
3f7f0000
00000000
00000000
00000000
00000000
ENDCHAR
STARTCHAR U+00D6
ENCODING 214
SWIDTH 1000 0
DWIDTH 20 0
BBX 26 20 -3 -4
BITMAP
01e1e000
01e1e000
00000000
00000000
03ffc000
03ffc000
1e01e000
1e01e000
1e01e000
3c03c000
3c03c000
3c03c000
78078000
78078000
1ffe0000
3ffc0000
00000000
00000000
00000000
00000000
ENDCHAR
STARTCHAR U+00D5
ENCODING 213
SWIDTH 1000 0
DWIDTH 20 0
BBX 26 20 -3 -4
BITMAP
01f9e000
01f9e000
079f8000
0f3f0000
03ffc000
03ffc000
1e01e000
1e01e000
1e01e000
3c03c000
3c03c000
3c03c000
78078000
78078000
1ffe0000
3ffc0000
00000000
00000000
00000000
00000000
ENDCHAR
STARTCHAR U+00D4
ENCODING 212
SWIDTH 1000 0
DWIDTH 20 0
BBX 26 20 -3 -4
BITMAP
007f8000
007f8000
01e1e000
03c3c000
03ffc000
03ffc000
1e01e000
1e01e000
1e01e000
3c03c000
3c03c000
3c03c000
78078000
78078000
1ffe0000
3ffc0000
00000000
00000000
00000000
00000000
ENDCHAR
STARTCHAR U+00D3
ENCODING 211
SWIDTH 1000 0
DWIDTH 20 0
BBX 26 20 -3 -4
BITMAP
001f8000
001f8000
01f80000
03f00000
03ffc000
03ffc000
1e01e000
1e01e000
1e01e000
3c03c000
3c03c000
3c03c000
78078000
78078000
1ffe0000
3ffc0000
00000000
00000000
00000000
00000000
ENDCHAR
STARTCHAR U+00D2
ENCODING 210
SWIDTH 1000 0
DWIDTH 20 0
BBX 26 20 -3 -4
BITMAP
007e0000
007e0000
0007e000
000fc000
03ffc000
03ffc000
1e01e000
1e01e000
1e01e000
3c03c000
3c03c000
3c03c000
78078000
78078000
1ffe0000
3ffc0000
00000000
00000000
00000000
00000000
ENDCHAR
STARTCHAR U+00D1
ENCODING 209
SWIDTH 1000 0
DWIDTH 20 0
BBX 26 20 -3 -4
BITMAP
007e7800
007e7800
01e7e000
03cfc000
0fc0f000
0fc0f000
1ee1e000
1ee1e000
1e79e000
3cf3c000
3c3dc000
3c3dc000
781f8000
781f8000
78078000
f00f0000
00000000
00000000
00000000
00000000
ENDCHAR
STARTCHAR U+00D0
ENCODING 208
SWIDTH 1000 0
DWIDTH 20 0
BBX 26 20 -3 -4
BITMAP
00000000
00000000
07ff8000
0fff0000
03c3c000
03c3c000
0781e000
0781e000
1ff9e000
3ff3c000
0f03c000
0f03c000
1e1e0000
1e1e0000
7ff80000
fff00000
00000000
00000000
00000000
00000000
ENDCHAR
STARTCHAR U+00CF
ENCODING 207
SWIDTH 1000 0
DWIDTH 20 0
BBX 26 20 -3 -4
BITMAP
01e1e000
01e1e000
00000000
00000000
03ffc000
03ffc000
00780000
00780000
00780000
00f00000
00f00000
00f00000
01e00000
01e00000
1ffe0000
3ffc0000
00000000
00000000
00000000
00000000
ENDCHAR
STARTCHAR U+00CE
ENCODING 206
SWIDTH 1000 0
DWIDTH 20 0
BBX 26 20 -3 -4
BITMAP
007f8000
007f8000
01e1e000
03c3c000
03ffc000
03ffc000
00780000
00780000
00780000
00f00000
00f00000
00f00000
01e00000
01e00000
1ffe0000
3ffc0000
00000000
00000000
00000000
00000000
ENDCHAR
STARTCHAR U+00CD
ENCODING 205
SWIDTH 1000 0
DWIDTH 20 0
BBX 26 20 -3 -4
BITMAP
001f8000
001f8000
01f80000
03f00000
03ffc000
03ffc000
00780000
00780000
00780000
00f00000
00f00000
00f00000
01e00000
01e00000
1ffe0000
3ffc0000
00000000
00000000
00000000
00000000
ENDCHAR
STARTCHAR U+00CC
ENCODING 204
SWIDTH 1000 0
DWIDTH 20 0
BBX 26 20 -3 -4
BITMAP
007e0000
007e0000
0007e000
000fc000
03ffc000
03ffc000
00780000
00780000
00780000
00f00000
00f00000
00f00000
01e00000
01e00000
1ffe0000
3ffc0000
00000000
00000000
00000000
00000000
ENDCHAR
STARTCHAR U+00CB
ENCODING 203
SWIDTH 1000 0
DWIDTH 20 0
BBX 26 20 -3 -4
BITMAP
01e1e000
01e1e000
00000000
00000000
0ffff000
0ffff000
1e000000
1e000000
1ffe0000
3ffc0000
3c000000
3c000000
78000000
78000000
7fff8000
ffff0000
00000000
00000000
00000000
00000000
ENDCHAR
STARTCHAR U+00CA
ENCODING 202
SWIDTH 1000 0
DWIDTH 20 0
BBX 26 20 -3 -4
BITMAP
007f8000
007f8000
01e1e000
03c3c000
0ffff000
0ffff000
1e000000
1e000000
1ff80000
3ff00000
3c000000
3c000000
78000000
78000000
7fff8000
ffff0000
00000000
00000000
00000000
00000000
ENDCHAR
STARTCHAR U+00C9
ENCODING 201
SWIDTH 1000 0
DWIDTH 20 0
BBX 26 20 -3 -4
BITMAP
0007e000
0007e000
007e0000
00fc0000
0ffff000
0ffff000
1e000000
1e000000
1ffe0000
3ffc0000
3c000000
3c000000
78000000
78000000
7fff8000
ffff0000
00000000
00000000
00000000
00000000
ENDCHAR
STARTCHAR U+00C8
ENCODING 200
SWIDTH 1000 0
DWIDTH 20 0
BBX 26 20 -3 -4
BITMAP
01f80000
01f80000
001f8000
003f0000
0ffff000
0ffff000
1e000000
1e000000
1ffe0000
3ffc0000
3c000000
3c000000
78000000
78000000
7fff8000
ffff0000
00000000
00000000
00000000
00000000
ENDCHAR
STARTCHAR U+00C7
ENCODING 199
SWIDTH 1000 0
DWIDTH 20 0
BBX 26 20 -3 -4
BITMAP
00000000
00000000
007fe000
00ffc000
03c0f000
03c0f000
1e000000
1e000000
1e000000
3c000000
3c000000
3c000000
1e078000
1e078000
07fe0000
0ffc0000
00f00000
00f00000
1fe00000
1fe00000
ENDCHAR
STARTCHAR U+00C6
ENCODING 198
SWIDTH 1000 0
DWIDTH 20 0
BBX 26 20 -3 -4
BITMAP
00000000
00000000
007ff800
00fff000
03dc0000
03dc0000
1e780000
1e780000
1e7f8000
3cff0000
3ff00000
3ff00000
79e00000
79e00000
79ff8000
f3ff0000
00000000
00000000
00000000
00000000
ENDCHAR
STARTCHAR U+00C5
ENCODING 197
SWIDTH 1000 0
DWIDTH 20 0
BBX 26 20 -3 -4
BITMAP
007f8000
007f8000
01e1e000
03c3c000
00ff0000
00ff0000
01fe0000
01fe0000
07878000
0f0f0000
3fffc000
3fffc000
78078000
78078000
78078000
f00f0000
00000000
00000000
00000000
00000000
ENDCHAR
STARTCHAR U+00C4
ENCODING 196
SWIDTH 1000 0
DWIDTH 20 0
BBX 26 20 -3 -4
BITMAP
01e1e000
01e1e000
00000000
00000000
003c0000
003c0000
01ee0000
01ee0000
07878000
0f0f0000
3fffc000
3fffc000
78078000
78078000
78078000
f00f0000
00000000
00000000
00000000
00000000
ENDCHAR
STARTCHAR U+00C3
ENCODING 195
SWIDTH 1000 0
DWIDTH 20 0
BBX 26 20 -3 -4
BITMAP
007e7800
007e7800
01e7e000
03cfc000
003c0000
003c0000
01ee0000
01ee0000
07878000
0f0f0000
3fffc000
3fffc000
78078000
78078000
78078000
f00f0000
00000000
00000000
00000000
00000000
ENDCHAR
STARTCHAR U+00C2
ENCODING 194
SWIDTH 1000 0
DWIDTH 20 0
BBX 26 20 -3 -4
BITMAP
007f8000
007f8000
01e1e000
03c3c000
003c0000
003c0000
01ee0000
01ee0000
07878000
0f0f0000
3fffc000
3fffc000
78078000
78078000
78078000
f00f0000
00000000
00000000
00000000
00000000
ENDCHAR
STARTCHAR U+00C1
ENCODING 193
SWIDTH 1000 0
DWIDTH 20 0
BBX 26 20 -3 -4
BITMAP
001f8000
001f8000
01f80000
03f00000
003c0000
003c0000
01ee0000
01ee0000
07878000
0f0f0000
3fffc000
3fffc000
78078000
78078000
78078000
f00f0000
00000000
00000000
00000000
00000000
ENDCHAR
STARTCHAR U+00C0
ENCODING 192
SWIDTH 1000 0
DWIDTH 20 0
BBX 26 20 -3 -4
BITMAP
007e0000
007e0000
0007e000
000fc000
003c0000
003c0000
01ee0000
01ee0000
07878000
0f0f0000
3fffc000
3fffc000
78078000
78078000
78078000
f00f0000
00000000
00000000
00000000
00000000
ENDCHAR
STARTCHAR U+00BF
ENCODING 191
SWIDTH 1000 0
DWIDTH 20 0
BBX 26 20 -3 -4
BITMAP
00000000
00000000
001e0000
003c0000
00000000
00000000
00780000
00780000
00780000
00f00000
0fc00000
0fc00000
78078000
78078000
1ffe0000
3ffc0000
00000000
00000000
00000000
00000000
ENDCHAR
STARTCHAR U+00BE
ENCODING 190
SWIDTH 1000 0
DWIDTH 20 0
BBX 26 20 -3 -4
BITMAP
07fe0000
07fe0000
001e0000
003c0000
03f3c000
03f3c000
007e0000
007e0000
1ff80000
3ff00000
03cf0000
03cf0000
1e7e0000
1e7e0000
79ee0000
f3dc0000
0fff0000
0fff0000
00780000
00780000
ENDCHAR
STARTCHAR U+00BD
ENCODING 189
SWIDTH 1000 0
DWIDTH 20 0
BBX 26 20 -3 -4
BITMAP
00000000
00000000
01e00000
03c00000
0fc3c000
0fc3c000
079e0000
079e0000
07b80000
0f700000
03df0000
03df0000
1ee78000
1ee78000
781e0000
f03c0000
00f00000
00f00000
07fe0000
07fe0000
ENDCHAR
STARTCHAR U+00BC
ENCODING 188
SWIDTH 1000 0
DWIDTH 20 0
BBX 26 20 -3 -4
BITMAP
00000000
00000000
01e00000
03c00000
0fc3c000
0fc3c000
079e0000
079e0000
07b80000
0f700000
03cf0000
03cf0000
1e7e0000
1e7e0000
79ee0000
f3dc0000
0fff0000
0fff0000
00780000
00780000
ENDCHAR
STARTCHAR U+00BB
ENCODING 187
SWIDTH 1000 0
DWIDTH 20 0
BBX 26 20 -3 -4
BITMAP
00000000
00000000
079e0000
0f3c0000
03cf0000
03cf0000
01e78000
01e78000
0079e000
00f3c000
03cf0000
03cf0000
1e780000
1e780000
79e00000
f3c00000
00000000
00000000
00000000
00000000
ENDCHAR
STARTCHAR U+00BA
ENCODING 186
SWIDTH 1000 0
DWIDTH 20 0
BBX 26 20 -3 -4
BITMAP
00000000
00000000
01ffe000
03ffc000
0f00f000
0f00f000
1e01e000
1e01e000
1e01e000
3c03c000
0fff0000
0fff0000
00000000
00000000
7fff8000
ffff0000
00000000
00000000
00000000
00000000
ENDCHAR
STARTCHAR U+00B9
ENCODING 185
SWIDTH 1000 0
DWIDTH 20 0
BBX 26 20 -3 -4
BITMAP
001e0000
001e0000
007e0000
00fc0000
003c0000
003c0000
00780000
00780000
01fe0000
03fc0000
00000000
00000000
00000000
00000000
00000000
00000000
00000000
00000000
00000000
00000000
ENDCHAR
STARTCHAR U+00B8
ENCODING 184
SWIDTH 1000 0
DWIDTH 20 0
BBX 26 20 -3 -4
BITMAP
00000000
00000000
00000000
00000000
00000000
00000000
00000000
00000000
00000000
00000000
00000000
00000000
00000000
00000000
00000000
00000000
00f00000
00f00000
1fe00000
1fe00000
ENDCHAR
STARTCHAR U+2022
ENCODING 8226
SWIDTH 1000 0
DWIDTH 20 0
BBX 26 20 -3 -4
BITMAP
00000000
00000000
00000000
00000000
00000000
00000000
01f80000
01f80000
01f80000
03f00000
00000000
00000000
00000000
00000000
00000000
00000000
00000000
00000000
00000000
00000000
ENDCHAR
STARTCHAR U+00B6
ENCODING 182
SWIDTH 1000 0
DWIDTH 20 0
BBX 26 20 -3 -4
BITMAP
00000000
00000000
01fff800
03fff000
0fcf7000
0fcf7000
1f9ee000
1f9ee000
07ffe000
0fffc000
003dc000
003dc000
007b8000
007b8000
007b8000
00f70000
00000000
00000000
00000000
00000000
ENDCHAR
STARTCHAR U+00B5
ENCODING 181
SWIDTH 1000 0
DWIDTH 20 0
BBX 26 20 -3 -4
BITMAP
00000000
00000000
00000000
00000000
00000000
00000000
0781e000
0781e000
0781e000
0f03c000
0f03c000
0f03c000
1f9f8000
1f9f8000
1efb8000
3df70000
3c000000
3c000000
e0000000
e0000000
ENDCHAR
STARTCHAR U+00B4
ENCODING 180
SWIDTH 1000 0
DWIDTH 20 0
BBX 26 20 -3 -4
BITMAP
00000000
00000000
0007e000
000fc000
000f0000
000f0000
00780000
00780000
00000000
00000000
00000000
00000000
00000000
00000000
00000000
00000000
00000000
00000000
00000000
00000000
ENDCHAR
STARTCHAR U+00B3
ENCODING 179
SWIDTH 1000 0
DWIDTH 20 0
BBX 26 20 -3 -4
BITMAP
01ffe000
01ffe000
0001e000
0003c000
003f0000
003f0000
00078000
00078000
07fe0000
0ffc0000
00000000
00000000
00000000
00000000
00000000
00000000
00000000
00000000
00000000
00000000
ENDCHAR
STARTCHAR U+00B2
ENCODING 178
SWIDTH 1000 0
DWIDTH 20 0
BBX 26 20 -3 -4
BITMAP
007f8000
007f8000
01e1e000
03c3c000
003f0000
003f0000
01e00000
01e00000
07ff8000
0fff0000
00000000
00000000
00000000
00000000
00000000
00000000
00000000
00000000
00000000
00000000
ENDCHAR
STARTCHAR U+00AF
ENCODING 175
SWIDTH 1000 0
DWIDTH 20 0
BBX 26 20 -3 -4
BITMAP
01ffe000
01ffe000
00000000
00000000
00000000
00000000
00000000
00000000
00000000
00000000
00000000
00000000
00000000
00000000
00000000
00000000
00000000
00000000
00000000
00000000
ENDCHAR
STARTCHAR U+00AE
ENCODING 174
SWIDTH 1000 0
DWIDTH 20 0
BBX 26 20 -3 -4
BITMAP
00000000
00000000
007f8000
00ff0000
03c3c000
03c3c000
1efee000
1efee000
1ee7e000
3dcfc000
3dfdc000
3dfdc000
7be78000
7be78000
1fbe0000
3f7c0000
0ff00000
0ff00000
00000000
00000000
ENDCHAR
STARTCHAR U+00D7
ENCODING 215
SWIDTH 1000 0
DWIDTH 20 0
BBX 26 20 -3 -4
BITMAP
00000000
00000000
00000000
00000000
03c3c000
03c3c000
01ee0000
01ee0000
00780000
00f00000
03dc0000
03dc0000
1e1e0000
1e1e0000
00000000
00000000
00000000
00000000
00000000
00000000
ENDCHAR
STARTCHAR U+00AC
ENCODING 172
SWIDTH 1000 0
DWIDTH 20 0
BBX 26 20 -3 -4
BITMAP
00000000
00000000
00000000
00000000
00000000
00000000
00000000
00000000
00000000
00000000
3fffc000
3fffc000
00078000
00078000
00078000
000f0000
00000000
00000000
00000000
00000000
ENDCHAR
STARTCHAR U+00AB
ENCODING 171
SWIDTH 1000 0
DWIDTH 20 0
BBX 26 20 -3 -4
BITMAP
00000000
00000000
001e7800
003cf000
00f3c000
00f3c000
079e0000
079e0000
1e780000
3cf00000
0f3c0000
0f3c0000
079e0000
079e0000
01e78000
03cf0000
00000000
00000000
00000000
00000000
ENDCHAR
STARTCHAR U+00AA
ENCODING 170
SWIDTH 1000 0
DWIDTH 20 0
BBX 26 20 -3 -4
BITMAP
00000000
00000000
01ffe000
03ffc000
0000f000
0000f000
07ffe000
07ffe000
1e07e000
3c0fc000
0ffdc000
0ffdc000
00000000
00000000
7fff8000
ffff0000
00000000
00000000
00000000
00000000
ENDCHAR
STARTCHAR U+00A9
ENCODING 169
SWIDTH 1000 0
DWIDTH 20 0
BBX 26 20 -3 -4
BITMAP
00000000
00000000
007f8000
00ff0000
03c3c000
03c3c000
1e7ee000
1e7ee000
1ee1e000
3dc3c000
3dc3c000
3dc3c000
79fb8000
79fb8000
1e1e0000
3c3c0000
0ff00000
0ff00000
00000000
00000000
ENDCHAR
STARTCHAR U+00A4
ENCODING 164
SWIDTH 1000 0
DWIDTH 20 0
BBX 26 20 -3 -4
BITMAP
00000000
00000000
00000000
00000000
0f00f000
0f00f000
07ff8000
07ff8000
07878000
0f0f0000
0fff0000
0fff0000
78078000
78078000
00000000
00000000
00000000
00000000
00000000
00000000
ENDCHAR
STARTCHAR U+00A7
ENCODING 167
SWIDTH 1000 0
DWIDTH 20 0
BBX 26 20 -3 -4
BITMAP
00000000
00000000
007fe000
00ffc000
03c00000
03c00000
01fe0000
01fe0000
07878000
0f0f0000
03fc0000
03fc0000
001e0000
001e0000
1ff80000
3ff00000
00000000
00000000
00000000
00000000
ENDCHAR
STARTCHAR U+00A6
ENCODING 166
SWIDTH 1000 0
DWIDTH 20 0
BBX 26 20 -3 -4
BITMAP
00000000
00000000
001e0000
003c0000
003c0000
003c0000
00780000
00780000
00000000
00000000
00f00000
00f00000
01e00000
01e00000
01e00000
03c00000
00000000
00000000
00000000
00000000
ENDCHAR
STARTCHAR U+00A5
ENCODING 165
SWIDTH 1000 0
DWIDTH 20 0
BBX 26 20 -3 -4
BITMAP
00000000
00000000
07807800
0f00f000
03c3c000
03c3c000
01ee0000
01ee0000
00780000
00f00000
3fffc000
3fffc000
01e00000
01e00000
01e00000
03c00000
00000000
00000000
00000000
00000000
ENDCHAR
STARTCHAR U+00A8
ENCODING 168
SWIDTH 1000 0
DWIDTH 20 0
BBX 26 20 -3 -4
BITMAP
01e1e000
01e1e000
00000000
00000000
00000000
00000000
00000000
00000000
00000000
00000000
00000000
00000000
00000000
00000000
00000000
00000000
00000000
00000000
00000000
00000000
ENDCHAR
STARTCHAR U+00A2
ENCODING 162
SWIDTH 1000 0
DWIDTH 20 0
BBX 26 20 -3 -4
BITMAP
00000000
00000000
00000000
00000000
003c0000
003c0000
07ff8000
07ff8000
1e79e000
3cf3c000
3cf00000
3cf00000
79e78000
79e78000
1ffe0000
3ffc0000
03c00000
03c00000
00000000
00000000
ENDCHAR
STARTCHAR U+00A1
ENCODING 161
SWIDTH 1000 0
DWIDTH 20 0
BBX 26 20 -3 -4
BITMAP
00000000
00000000
001e0000
003c0000
00000000
00000000
00780000
00780000
00780000
00f00000
00f00000
00f00000
01e00000
01e00000
01e00000
03c00000
00000000
00000000
00000000
00000000
ENDCHAR
STARTCHAR U+201F
ENCODING 8223
SWIDTH 1000 0
DWIDTH 20 0
BBX 26 20 -3 -4
BITMAP
00000000
00000000
01fbe000
03f7c000
03cf0000
03cf0000
01e78000
01e78000
00000000
00000000
00000000
00000000
00000000
00000000
00000000
00000000
00000000
00000000
00000000
00000000
ENDCHAR
STARTCHAR U+201E
ENCODING 8222
SWIDTH 1000 0
DWIDTH 20 0
BBX 26 20 -3 -4
BITMAP
00000000
00000000
00000000
00000000
00000000
00000000
00000000
00000000
00000000
00000000
00000000
00000000
00000000
00000000
1e780000
3cf00000
3cf00000
3cf00000
00000000
00000000
ENDCHAR
STARTCHAR U+201D
ENCODING 8221
SWIDTH 1000 0
DWIDTH 20 0
BBX 26 20 -3 -4
BITMAP
00000000
00000000
01f9f800
03f3f000
00f0f000
00f0f000
07878000
07878000
00000000
00000000
00000000
00000000
00000000
00000000
00000000
00000000
00000000
00000000
00000000
00000000
ENDCHAR
STARTCHAR U+201C
ENCODING 8220
SWIDTH 1000 0
DWIDTH 20 0
BBX 26 20 -3 -4
BITMAP
00000000
00000000
00787800
00f0f000
03c3c000
03c3c000
07e7e000
07e7e000
00000000
00000000
00000000
00000000
00000000
00000000
00000000
00000000
00000000
00000000
00000000
00000000
ENDCHAR
STARTCHAR U+201B
ENCODING 8219
SWIDTH 1000 0
DWIDTH 20 0
BBX 26 20 -3 -4
BITMAP
00000000
00000000
001e0000
003c0000
003c0000
003c0000
00780000
00780000
00000000
00000000
00000000
00000000
00000000
00000000
00000000
00000000
00000000
00000000
00000000
00000000
ENDCHAR
STARTCHAR U+201A
ENCODING 8218
SWIDTH 1000 0
DWIDTH 20 0
BBX 26 20 -3 -4
BITMAP
00000000
00000000
00000000
00000000
00000000
00000000
00000000
00000000
00000000
00000000
00f00000
00f00000
01e00000
01e00000
01e00000
03c00000
00000000
00000000
00000000
00000000
ENDCHAR
STARTCHAR U+2019
ENCODING 8217
SWIDTH 1000 0
DWIDTH 20 0
BBX 26 20 -3 -4
BITMAP
00000000
00000000
01f80000
03f00000
00f00000
00f00000
07800000
07800000
00000000
00000000
00000000
00000000
00000000
00000000
00000000
00000000
00000000
00000000
00000000
00000000
ENDCHAR
STARTCHAR U+2018
ENCODING 8216
SWIDTH 1000 0
DWIDTH 20 0
BBX 26 20 -3 -4
BITMAP
00000000
00000000
00007800
0000f000
0003c000
0003c000
0007e000
0007e000
00000000
00000000
00000000
00000000
00000000
00000000
00000000
00000000
00000000
00000000
00000000
00000000
ENDCHAR
STARTCHAR U+2017
ENCODING 8215
SWIDTH 1000 0
DWIDTH 20 0
BBX 26 20 -3 -4
BITMAP
00000000
00000000
00000000
00000000
00000000
00000000
00000000
00000000
00000000
00000000
00000000
00000000
00000000
00000000
7fff8000
ffff0000
00000000
00000000
fffe0000
fffe0000
ENDCHAR
STARTCHAR U+2016
ENCODING 8214
SWIDTH 1000 0
DWIDTH 20 0
BBX 26 20 -3 -4
BITMAP
00000000
00000000
001ee000
003dc000
003dc000
003dc000
007b8000
007b8000
007b8000
00f70000
00f70000
00f70000
01ee0000
01ee0000
01ee0000
03dc0000
00000000
00000000
00000000
00000000
ENDCHAR
STARTCHAR U+2015
ENCODING 8213
SWIDTH 1000 0
DWIDTH 20 0
BBX 26 20 -3 -4
BITMAP
00000000
00000000
00000000
00000000
00000000
00000000
00000000
00000000
1fffff00
3ffffe00
00000000
00000000
00000000
00000000
00000000
00000000
00000000
00000000
00000000
00000000
ENDCHAR
STARTCHAR U+2014
ENCODING 8212
SWIDTH 1000 0
DWIDTH 20 0
BBX 26 20 -3 -4
BITMAP
00000000
00000000
00000000
00000000
00000000
00000000
00000000
00000000
1fffe000
3fffc000
00000000
00000000
00000000
00000000
00000000
00000000
00000000
00000000
00000000
00000000
ENDCHAR
STARTCHAR U+2013
ENCODING 8211
SWIDTH 1000 0
DWIDTH 20 0
BBX 26 20 -3 -4
BITMAP
00000000
00000000
00000000
00000000
00000000
00000000
00000000
00000000
01ff8000
03ff0000
00000000
00000000
00000000
00000000
00000000
00000000
00000000
00000000
00000000
00000000
ENDCHAR
STARTCHAR U+2012
ENCODING 8210
SWIDTH 1000 0
DWIDTH 20 0
BBX 26 20 -3 -4
BITMAP
00000000
00000000
00000000
00000000
00000000
00000000
00000000
00000000
07ff8000
0fff0000
00000000
00000000
00000000
00000000
00000000
00000000
00000000
00000000
00000000
00000000
ENDCHAR
STARTCHAR U+2011
ENCODING 8209
SWIDTH 1000 0
DWIDTH 20 0
BBX 26 20 -3 -4
BITMAP
00000000
00000000
00000000
00000000
00000000
00000000
00000000
00000000
01fe0000
03fc0000
00000000
00000000
00000000
00000000
00000000
00000000
00000000
00000000
00000000
00000000
ENDCHAR
STARTCHAR U+2010
ENCODING 8208
SWIDTH 1000 0
DWIDTH 20 0
BBX 26 20 -3 -4
BITMAP
00000000
00000000
00000000
00000000
00000000
00000000
00000000
00000000
01fe0000
03fc0000
00000000
00000000
00000000
00000000
00000000
00000000
00000000
00000000
00000000
00000000
ENDCHAR
STARTCHAR U+007F
ENCODING 127
SWIDTH 1000 0
DWIDTH 20 0
BBX 26 20 -3 -4
BITMAP
00000000
00000000
07f80000
0ff00000
0f3c0000
0f3c0000
1e780000
1e780000
1e780000
3cf00000
3ffc0000
3ffc0000
07800000
07800000
07800000
0f000000
0f000000
0f000000
1e000000
1e000000
ENDCHAR
STARTCHAR U+007E
ENCODING 126
SWIDTH 1000 0
DWIDTH 20 0
BBX 26 20 -3 -4
BITMAP
00000000
00000000
01f87800
03f0f000
0f3cf000
0f3cf000
1e1f8000
1e1f8000
00000000
00000000
00000000
00000000
00000000
00000000
00000000
00000000
00000000
00000000
00000000
00000000
ENDCHAR
STARTCHAR U+007D
ENCODING 125
SWIDTH 1000 0
DWIDTH 20 0
BBX 26 20 -3 -4
BITMAP
00000000
00000000
07f80000
0ff00000
003c0000
003c0000
01e00000
01e00000
007e0000
00fc0000
03c00000
03c00000
01e00000
01e00000
7f800000
ff000000
00000000
00000000
00000000
00000000
ENDCHAR
STARTCHAR U+007C
ENCODING 124
SWIDTH 1000 0
DWIDTH 20 0
BBX 26 20 -3 -4
BITMAP
00000000
00000000
001e0000
003c0000
003c0000
003c0000
00780000
00780000
00780000
00f00000
00f00000
00f00000
01e00000
01e00000
01e00000
03c00000
00000000
00000000
00000000
00000000
ENDCHAR
STARTCHAR U+007B
ENCODING 123
SWIDTH 1000 0
DWIDTH 20 0
BBX 26 20 -3 -4
BITMAP
00000000
00000000
0007f800
000ff000
003c0000
003c0000
001e0000
001e0000
01f80000
03f00000
003c0000
003c0000
01e00000
01e00000
007f8000
00ff0000
00000000
00000000
00000000
00000000
ENDCHAR
STARTCHAR U+007A
ENCODING 122
SWIDTH 1000 0
DWIDTH 20 0
BBX 26 20 -3 -4
BITMAP
00000000
00000000
00000000
00000000
00000000
00000000
1fffe000
1fffe000
00078000
000f0000
00fc0000
00fc0000
07800000
07800000
7fff8000
ffff0000
00000000
00000000
00000000
00000000
ENDCHAR
STARTCHAR U+0079
ENCODING 121
SWIDTH 1000 0
DWIDTH 20 0
BBX 26 20 -3 -4
BITMAP
00000000
00000000
00000000
00000000
00000000
00000000
1e078000
1e078000
1e078000
3c0f0000
3c3f0000
3c3f0000
1fee0000
1fee0000
001e0000
003c0000
f03c0000
f03c0000
7fe00000
7fe00000
ENDCHAR
STARTCHAR U+0078
ENCODING 120
SWIDTH 1000 0
DWIDTH 20 0
BBX 26 20 -3 -4
BITMAP
00000000
00000000
00000000
00000000
00000000
00000000
1e078000
1e078000
079e0000
0f3c0000
03f00000
03f00000
1e780000
1e780000
781e0000
f03c0000
00000000
00000000
00000000
00000000
ENDCHAR
STARTCHAR U+0077
ENCODING 119
SWIDTH 1000 0
DWIDTH 20 0
BBX 26 20 -3 -4
BITMAP
00000000
00000000
00000000
00000000
00000000
00000000
1e01e000
1e01e000
1e01e000
3c03c000
3cf3c000
3cf3c000
7bbb8000
7bbb8000
1e1e0000
3c3c0000
00000000
00000000
00000000
00000000
ENDCHAR
STARTCHAR U+0076
ENCODING 118
SWIDTH 1000 0
DWIDTH 20 0
BBX 26 20 -3 -4
BITMAP
00000000
00000000
00000000
00000000
00000000
00000000
1e01e000
1e01e000
1e01e000
3c03c000
0f0f0000
0f0f0000
07b80000
07b80000
01e00000
03c00000
00000000
00000000
00000000
00000000
ENDCHAR
STARTCHAR U+0075
ENCODING 117
SWIDTH 1000 0
DWIDTH 20 0
BBX 26 20 -3 -4
BITMAP
00000000
00000000
00000000
00000000
00000000
00000000
1e078000
1e078000
1e078000
3c0f0000
3c0f0000
3c0f0000
781e0000
781e0000
1ffb8000
3ff70000
00000000
00000000
00000000
00000000
ENDCHAR
STARTCHAR U+0074
ENCODING 116
SWIDTH 1000 0
DWIDTH 20 0
BBX 26 20 -3 -4
BITMAP
00000000
00000000
00780000
00f00000
00f00000
00f00000
1ffe0000
1ffe0000
01e00000
03c00000
03c00000
03c00000
079e0000
079e0000
01f80000
03f00000
00000000
00000000
00000000
00000000
ENDCHAR
STARTCHAR U+0073
ENCODING 115
SWIDTH 1000 0
DWIDTH 20 0
BBX 26 20 -3 -4
BITMAP
00000000
00000000
00000000
00000000
00000000
00000000
07ff8000
07ff8000
1e000000
3c000000
0fff0000
0fff0000
00078000
00078000
7ffe0000
fffc0000
00000000
00000000
00000000
00000000
ENDCHAR
STARTCHAR U+0072
ENCODING 114
SWIDTH 1000 0
DWIDTH 20 0
BBX 26 20 -3 -4
BITMAP
00000000
00000000
00000000
00000000
00000000
00000000
1e7f8000
1e7f8000
07e1e000
0fc3c000
0f000000
0f000000
1e000000
1e000000
1e000000
3c000000
00000000
00000000
00000000
00000000
ENDCHAR
STARTCHAR U+0071
ENCODING 113
SWIDTH 1000 0
DWIDTH 20 0
BBX 26 20 -3 -4
BITMAP
00000000
00000000
00000000
00000000
00000000
00000000
07fee000
07fee000
1e07e000
3c0fc000
3c0fc000
3c0fc000
1ffb8000
1ffb8000
00078000
000f0000
000f0000
000f0000
001e0000
001e0000
ENDCHAR
STARTCHAR U+0070
ENCODING 112
SWIDTH 1000 0
DWIDTH 20 0
BBX 26 20 -3 -4
BITMAP
00000000
00000000
00000000
00000000
00000000
00000000
1eff8000
1eff8000
1f81e000
3f03c000
3f03c000
3f03c000
7bfe0000
7bfe0000
78000000
f0000000
f0000000
f0000000
e0000000
e0000000
ENDCHAR
STARTCHAR U+006f
ENCODING 111
SWIDTH 1000 0
DWIDTH 20 0
BBX 26 20 -3 -4
BITMAP
00000000
00000000
00000000
00000000
00000000
00000000
07ff8000
07ff8000
1e01e000
3c03c000
3c03c000
3c03c000
78078000
78078000
1ffe0000
3ffc0000
00000000
00000000
00000000
00000000
ENDCHAR
STARTCHAR U+006e
ENCODING 110
SWIDTH 1000 0
DWIDTH 20 0
BBX 26 20 -3 -4
BITMAP
00000000
00000000
00000000
00000000
00000000
00000000
1eff8000
1eff8000
1f81e000
3f03c000
3c03c000
3c03c000
78078000
78078000
78078000
f00f0000
00000000
00000000
00000000
00000000
ENDCHAR
STARTCHAR U+006d
ENCODING 109
SWIDTH 1000 0
DWIDTH 20 0
BBX 26 20 -3 -4
BITMAP
00000000
00000000
00000000
00000000
00000000
00000000
1f878000
1f878000
1eeee000
3dddc000
3cf3c000
3cf3c000
79e78000
79e78000
78078000
f00f0000
00000000
00000000
00000000
00000000
ENDCHAR
STARTCHAR U+006c
ENCODING 108
SWIDTH 1000 0
DWIDTH 20 0
BBX 26 20 -3 -4
BITMAP
00000000
00000000
007e0000
00fc0000
003c0000
003c0000
00780000
00780000
00780000
00f00000
00f00000
00f00000
01e00000
01e00000
07f80000
0ff00000
00000000
00000000
00000000
00000000
ENDCHAR
STARTCHAR U+006b
ENCODING 107
SWIDTH 1000 0
DWIDTH 20 0
BBX 26 20 -3 -4
BITMAP
00000000
00000000
07800000
0f000000
0f000000
0f000000
1e1e0000
1e1e0000
1e780000
3cf00000
3fc00000
3fc00000
78780000
78780000
78078000
f00f0000
00000000
00000000
00000000
00000000
ENDCHAR
STARTCHAR U+006a
ENCODING 106
SWIDTH 1000 0
DWIDTH 20 0
BBX 26 20 -3 -4
BITMAP
00000000
00000000
0001e000
0003c000
00000000
00000000
00078000
00078000
00078000
000f0000
000f0000
000f0000
001e0000
001e0000
781e0000
f03c0000
f03c0000
f03c0000
7fe00000
7fe00000
ENDCHAR
STARTCHAR U+0069
ENCODING 105
SWIDTH 1000 0
DWIDTH 20 0
BBX 26 20 -3 -4
BITMAP
00000000
00000000
001e0000
003c0000
00000000
00000000
01f80000
01f80000
00780000
00f00000
00f00000
00f00000
01e00000
01e00000
1ffe0000
3ffc0000
00000000
00000000
00000000
00000000
ENDCHAR
STARTCHAR U+0068
ENCODING 104
SWIDTH 1000 0
DWIDTH 20 0
BBX 26 20 -3 -4
BITMAP
00000000
00000000
07800000
0f000000
0f000000
0f000000
1eff8000
1eff8000
1f81e000
3f03c000
3c03c000
3c03c000
78078000
78078000
78078000
f00f0000
00000000
00000000
00000000
00000000
ENDCHAR
STARTCHAR U+0067
ENCODING 103
SWIDTH 1000 0
DWIDTH 20 0
BBX 26 20 -3 -4
BITMAP
00000000
00000000
00000000
00000000
00000000
00000000
07fee000
07fee000
1e078000
3c0f0000
0ffc0000
0ffc0000
78000000
78000000
1ffe0000
3ffc0000
f00f0000
f00f0000
7ff80000
7ff80000
ENDCHAR
STARTCHAR U+0066
ENCODING 102
SWIDTH 1000 0
DWIDTH 20 0
BBX 26 20 -3 -4
BITMAP
00000000
00000000
001fe000
003fc000
00f0f000
00f0f000
01e00000
01e00000
1ffe0000
3ffc0000
03c00000
03c00000
07800000
07800000
07800000
0f000000
00000000
00000000
00000000
00000000
ENDCHAR
STARTCHAR U+0065
ENCODING 101
SWIDTH 1000 0
DWIDTH 20 0
BBX 26 20 -3 -4
BITMAP
00000000
00000000
00000000
00000000
00000000
00000000
07ff8000
07ff8000
1e01e000
3c03c000
3fffc000
3fffc000
78000000
78000000
1ffe0000
3ffc0000
00000000
00000000
00000000
00000000
ENDCHAR
STARTCHAR U+0064
ENCODING 100
SWIDTH 1000 0
DWIDTH 20 0
BBX 26 20 -3 -4
BITMAP
00000000
00000000
00007800
0000f000
0000f000
0000f000
07fee000
07fee000
1e07e000
3c0fc000
3c03c000
3c03c000
781f8000
781f8000
1ffb8000
3ff70000
00000000
00000000
00000000
00000000
ENDCHAR
STARTCHAR U+0063
ENCODING 99
SWIDTH 1000 0
DWIDTH 20 0
BBX 26 20 -3 -4
BITMAP
00000000
00000000
00000000
00000000
00000000
00000000
07ff8000
07ff8000
1e01e000
3c03c000
3c000000
3c000000
78000000
78000000
1fff8000
3fff0000
00000000
00000000
00000000
00000000
ENDCHAR
STARTCHAR U+0062
ENCODING 98
SWIDTH 1000 0
DWIDTH 20 0
BBX 26 20 -3 -4
BITMAP
00000000
00000000
07800000
0f000000
0f000000
0f000000
1eff8000
1eff8000
1f81e000
3f03c000
3c03c000
3c03c000
7e078000
7e078000
7bfe0000
f7fc0000
00000000
00000000
00000000
00000000
ENDCHAR
STARTCHAR U+0061
ENCODING 97
SWIDTH 1000 0
DWIDTH 20 0
BBX 26 20 -3 -4
BITMAP
00000000
00000000
00000000
00000000
00000000
00000000
07ff8000
07ff8000
0001e000
0003c000
0fffc000
0fffc000
781f8000
781f8000
1ffb8000
3ff70000
00000000
00000000
00000000
00000000
ENDCHAR
STARTCHAR U+0060
ENCODING 96
SWIDTH 1000 0
DWIDTH 20 0
BBX 26 20 -3 -4
BITMAP
00000000
00000000
007e0000
00fc0000
003c0000
003c0000
001e0000
001e0000
00000000
00000000
00000000
00000000
00000000
00000000
00000000
00000000
00000000
00000000
00000000
00000000
ENDCHAR
STARTCHAR U+005F
ENCODING 95
SWIDTH 1000 0
DWIDTH 20 0
BBX 26 20 -3 -4
BITMAP
00000000
00000000
00000000
00000000
00000000
00000000
00000000
00000000
00000000
00000000
00000000
00000000
00000000
00000000
7fff8000
ffff0000
00000000
00000000
00000000
00000000
ENDCHAR
STARTCHAR U+005E
ENCODING 94
SWIDTH 1000 0
DWIDTH 20 0
BBX 26 20 -3 -4
BITMAP
00000000
00000000
001e0000
003c0000
00f70000
00f70000
07878000
07878000
1e01e000
3c03c000
00000000
00000000
00000000
00000000
00000000
00000000
00000000
00000000
00000000
00000000
ENDCHAR
STARTCHAR U+005D
ENCODING 93
SWIDTH 1000 0
DWIDTH 20 0
BBX 26 20 -3 -4
BITMAP
00000000
00000000
01ff8000
03ff0000
000f0000
000f0000
001e0000
001e0000
001e0000
003c0000
003c0000
003c0000
00780000
00780000
1ff80000
3ff00000
00000000
00000000
00000000
00000000
ENDCHAR
STARTCHAR U+005C
ENCODING 92
SWIDTH 1000 0
DWIDTH 20 0
BBX 26 20 -3 -4
BITMAP
00000000
00000000
07800000
0f000000
03c00000
03c00000
01e00000
01e00000
00780000
00f00000
003c0000
003c0000
001e0000
001e0000
00078000
000f0000
00000000
00000000
00000000
00000000
ENDCHAR
STARTCHAR U+005B
ENCODING 91
SWIDTH 1000 0
DWIDTH 20 0
BBX 26 20 -3 -4
BITMAP
00000000
00000000
007fe000
00ffc000
00f00000
00f00000
01e00000
01e00000
01e00000
03c00000
03c00000
03c00000
07800000
07800000
07fe0000
0ffc0000
00000000
00000000
00000000
00000000
ENDCHAR
STARTCHAR U+005A
ENCODING 90
SWIDTH 1000 0
DWIDTH 20 0
BBX 26 20 -3 -4
BITMAP
00000000
00000000
07fff800
0ffff000
0003c000
0003c000
001e0000
001e0000
00780000
00f00000
03c00000
03c00000
1e000000
1e000000
7fff8000
ffff0000
00000000
00000000
00000000
00000000
ENDCHAR
STARTCHAR U+0059
ENCODING 89
SWIDTH 1000 0
DWIDTH 20 0
BBX 26 20 -3 -4
BITMAP
00000000
00000000
07807800
0f00f000
03c3c000
03c3c000
01ee0000
01ee0000
00780000
00f00000
00f00000
00f00000
01e00000
01e00000
01e00000
03c00000
00000000
00000000
00000000
00000000
ENDCHAR
STARTCHAR U+0058
ENCODING 88
SWIDTH 1000 0
DWIDTH 20 0
BBX 26 20 -3 -4
BITMAP
00000000
00000000
07807800
0f00f000
03c3c000
03c3c000
01ee0000
01ee0000
00780000
00f00000
03dc0000
03dc0000
1e1e0000
1e1e0000
78078000
f00f0000
00000000
00000000
00000000
00000000
ENDCHAR
STARTCHAR U+0057
ENCODING 87
SWIDTH 1000 0
DWIDTH 20 0
BBX 26 20 -3 -4
BITMAP
00000000
00000000
07807800
0f00f000
0f00f000
0f00f000
1e01e000
1e01e000
1e79e000
3cf3c000
3cf3c000
3cf3c000
7bbb8000
7bbb8000
1e1e0000
3c3c0000
00000000
00000000
00000000
00000000
ENDCHAR
STARTCHAR U+0056
ENCODING 86
SWIDTH 1000 0
DWIDTH 20 0
BBX 26 20 -3 -4
BITMAP
00000000
00000000
07807800
0f00f000
0f00f000
0f00f000
07878000
07878000
07878000
0f0f0000
03dc0000
03dc0000
07b80000
07b80000
01e00000
03c00000
00000000
00000000
00000000
00000000
ENDCHAR
STARTCHAR U+0055
ENCODING 85
SWIDTH 1000 0
DWIDTH 20 0
BBX 26 20 -3 -4
BITMAP
00000000
00000000
07807800
0f00f000
0f00f000
0f00f000
1e01e000
1e01e000
1e01e000
3c03c000
3c03c000
3c03c000
78078000
78078000
1ffe0000
3ffc0000
00000000
00000000
00000000
00000000
ENDCHAR
STARTCHAR U+0054
ENCODING 84
SWIDTH 1000 0
DWIDTH 20 0
BBX 26 20 -3 -4
BITMAP
00000000
00000000
07fff800
0ffff000
003c0000
003c0000
00780000
00780000
00780000
00f00000
00f00000
00f00000
01e00000
01e00000
01e00000
03c00000
00000000
00000000
00000000
00000000
ENDCHAR
STARTCHAR U+0053
ENCODING 83
SWIDTH 1000 0
DWIDTH 20 0
BBX 26 20 -3 -4
BITMAP
00000000
00000000
01ffe000
03ffc000
0f00f000
0f00f000
1e000000
1e000000
07ff8000
0fff0000
0003c000
0003c000
78078000
78078000
1ffe0000
3ffc0000
00000000
00000000
00000000
00000000
ENDCHAR
STARTCHAR U+0052
ENCODING 82
SWIDTH 1000 0
DWIDTH 20 0
BBX 26 20 -3 -4
BITMAP
00000000
00000000
07ffe000
0fffc000
0f00f000
0f00f000
1e01e000
1e01e000
1fff8000
3fff0000
3c3c0000
3c3c0000
781e0000
781e0000
78078000
f00f0000
00000000
00000000
00000000
00000000
ENDCHAR
STARTCHAR U+0051
ENCODING 81
SWIDTH 1000 0
DWIDTH 20 0
BBX 26 20 -3 -4
BITMAP
00000000
00000000
01ffe000
03ffc000
0f00f000
0f00f000
1e01e000
1e01e000
1e01e000
3c03c000
3c3dc000
3c3dc000
781e0000
781e0000
1ffb8000
3ff70000
00000000
00000000
00000000
00000000
ENDCHAR
STARTCHAR U+0050
ENCODING 80
SWIDTH 1000 0
DWIDTH 20 0
BBX 26 20 -3 -4
BITMAP
00000000
00000000
07ffe000
0fffc000
0f00f000
0f00f000
1e01e000
1e01e000
1fff8000
3fff0000
3c000000
3c000000
78000000
78000000
78000000
f0000000
00000000
00000000
00000000
00000000
ENDCHAR
STARTCHAR U+004F
ENCODING 79
SWIDTH 1000 0
DWIDTH 20 0
BBX 26 20 -3 -4
BITMAP
00000000
00000000
01ffe000
03ffc000
0f00f000
0f00f000
1e01e000
1e01e000
1e01e000
3c03c000
3c03c000
3c03c000
78078000
78078000
1ffe0000
3ffc0000
00000000
00000000
00000000
00000000
ENDCHAR
STARTCHAR U+004E
ENCODING 78
SWIDTH 1000 0
DWIDTH 20 0
BBX 26 20 -3 -4
BITMAP
00000000
00000000
07807800
0f00f000
0fc0f000
0fc0f000
1ee1e000
1ee1e000
1e79e000
3cf3c000
3c3dc000
3c3dc000
781f8000
781f8000
78078000
f00f0000
00000000
00000000
00000000
00000000
ENDCHAR
STARTCHAR U+004D
ENCODING 77
SWIDTH 1000 0
DWIDTH 20 0
BBX 26 20 -3 -4
BITMAP
00000000
00000000
07807800
0f00f000
0fc3f000
0fc3f000
1eeee000
1eeee000
1e79e000
3cf3c000
3c03c000
3c03c000
78078000
78078000
78078000
f00f0000
00000000
00000000
00000000
00000000
ENDCHAR
STARTCHAR U+004C
ENCODING 76
SWIDTH 1000 0
DWIDTH 20 0
BBX 26 20 -3 -4
BITMAP
00000000
00000000
07800000
0f000000
0f000000
0f000000
1e000000
1e000000
1e000000
3c000000
3c000000
3c000000
78000000
78000000
7fff8000
ffff0000
00000000
00000000
00000000
00000000
ENDCHAR
STARTCHAR U+004B
ENCODING 75
SWIDTH 1000 0
DWIDTH 20 0
BBX 26 20 -3 -4
BITMAP
00000000
00000000
07807800
0f00f000
0f0fc000
0f0fc000
1ef80000
1ef80000
1f800000
3f000000
3df00000
3df00000
787e0000
787e0000
78078000
f00f0000
00000000
00000000
00000000
00000000
ENDCHAR
STARTCHAR U+004A
ENCODING 74
SWIDTH 1000 0
DWIDTH 20 0
BBX 26 20 -3 -4
BITMAP
00000000
00000000
0007f800
000ff000
0003c000
0003c000
00078000
00078000
00078000
000f0000
000f0000
000f0000
781e0000
781e0000
1ff80000
3ff00000
00000000
00000000
00000000
00000000
ENDCHAR
STARTCHAR U+0049
ENCODING 73
SWIDTH 1000 0
DWIDTH 20 0
BBX 26 20 -3 -4
BITMAP
00000000
00000000
01ffe000
03ffc000
003c0000
003c0000
00780000
00780000
00780000
00f00000
00f00000
00f00000
01e00000
01e00000
1ffe0000
3ffc0000
00000000
00000000
00000000
00000000
ENDCHAR
STARTCHAR U+0048
ENCODING 72
SWIDTH 1000 0
DWIDTH 20 0
BBX 26 20 -3 -4
BITMAP
00000000
00000000
07807800
0f00f000
0f00f000
0f00f000
1e01e000
1e01e000
1fffe000
3fffc000
3c03c000
3c03c000
78078000
78078000
78078000
f00f0000
00000000
00000000
00000000
00000000
ENDCHAR
STARTCHAR U+0047
ENCODING 71
SWIDTH 1000 0
DWIDTH 20 0
BBX 26 20 -3 -4
BITMAP
00000000
00000000
007fe000
00ffc000
03c0f000
03c0f000
1e000000
1e000000
1e000000
3c000000
3c3fc000
3c3fc000
1e078000
1e078000
07fe0000
0ffc0000
00000000
00000000
00000000
00000000
ENDCHAR
STARTCHAR U+0046
ENCODING 70
SWIDTH 1000 0
DWIDTH 20 0
BBX 26 20 -3 -4
BITMAP
00000000
00000000
07fff800
0ffff000
0f000000
0f000000
1e000000
1e000000
1ffe0000
3ffc0000
3c000000
3c000000
78000000
78000000
78000000
f0000000
00000000
00000000
00000000
00000000
ENDCHAR
STARTCHAR U+0045
ENCODING 69
SWIDTH 1000 0
DWIDTH 20 0
BBX 26 20 -3 -4
BITMAP
00000000
00000000
07fff800
0ffff000
0f000000
0f000000
1e000000
1e000000
1ffe0000
3ffc0000
3c000000
3c000000
78000000
78000000
7fff8000
ffff0000
00000000
00000000
00000000
00000000
ENDCHAR
STARTCHAR U+0044
ENCODING 68
SWIDTH 1000 0
DWIDTH 20 0
BBX 26 20 -3 -4
BITMAP
00000000
00000000
07ff8000
0fff0000
03c3c000
03c3c000
0781e000
0781e000
0781e000
0f03c000
0f03c000
0f03c000
1e1e0000
1e1e0000
7ff80000
fff00000
00000000
00000000
00000000
00000000
ENDCHAR
STARTCHAR U+0043
ENCODING 67
SWIDTH 1000 0
DWIDTH 20 0
BBX 26 20 -3 -4
BITMAP
00000000
00000000
007fe000
00ffc000
03c0f000
03c0f000
1e000000
1e000000
1e000000
3c000000
3c000000
3c000000
1e078000
1e078000
07fe0000
0ffc0000
00000000
00000000
00000000
00000000
ENDCHAR
STARTCHAR U+0042
ENCODING 66
SWIDTH 1000 0
DWIDTH 20 0
BBX 26 20 -3 -4
BITMAP
00000000
00000000
07ffe000
0fffc000
03c0f000
03c0f000
0781e000
0781e000
07ff8000
0fff0000
0f03c000
0f03c000
1e078000
1e078000
7ffe0000
fffc0000
00000000
00000000
00000000
00000000
ENDCHAR
STARTCHAR U+0041
ENCODING 65
SWIDTH 1000 0
DWIDTH 20 0
BBX 26 20 -3 -4
BITMAP
00000000
00000000
001e0000
003c0000
00f70000
00f70000
07878000
07878000
1e01e000
3c03c000
3fffc000
3fffc000
78078000
78078000
78078000
f00f0000
00000000
00000000
00000000
00000000
ENDCHAR
STARTCHAR U+0040
ENCODING 64
SWIDTH 1000 0
DWIDTH 20 0
BBX 26 20 -3 -4
BITMAP
00000000
00000000
01ffe000
03ffc000
0f00f000
0f00f000
1e7fe000
1e7fe000
1ee7e000
3dcfc000
3cfdc000
3cfdc000
78000000
78000000
1ffe0000
3ffc0000
00000000
00000000
00000000
00000000
ENDCHAR
STARTCHAR U+003F
ENCODING 63
SWIDTH 1000 0
DWIDTH 20 0
BBX 26 20 -3 -4
BITMAP
00000000
00000000
01ffe000
03ffc000
0f00f000
0f00f000
001f8000
001f8000
00780000
00f00000
00f00000
00f00000
00000000
00000000
01e00000
03c00000
00000000
00000000
00000000
00000000
ENDCHAR
STARTCHAR U+003E
ENCODING 62
SWIDTH 1000 0
DWIDTH 20 0
BBX 26 20 -3 -4
BITMAP
00000000
00000000
07800000
0f000000
00f00000
00f00000
001e0000
001e0000
0001e000
0003c000
003c0000
003c0000
07800000
07800000
78000000
f0000000
00000000
00000000
00000000
00000000
ENDCHAR
STARTCHAR U+003D
ENCODING 61
SWIDTH 1000 0
DWIDTH 20 0
BBX 26 20 -3 -4
BITMAP
00000000
00000000
00000000
00000000
00000000
00000000
1fffe000
1fffe000
00000000
00000000
3fffc000
3fffc000
00000000
00000000
00000000
00000000
00000000
00000000
00000000
00000000
ENDCHAR
STARTCHAR U+003C
ENCODING 60
SWIDTH 1000 0
DWIDTH 20 0
BBX 26 20 -3 -4
BITMAP
00000000
00000000
00007800
0000f000
000f0000
000f0000
01e00000
01e00000
1e000000
3c000000
03c00000
03c00000
00780000
00780000
00078000
000f0000
00000000
00000000
00000000
00000000
ENDCHAR
STARTCHAR U+003B
ENCODING 59
SWIDTH 1000 0
DWIDTH 20 0
BBX 26 20 -3 -4
BITMAP
00000000
00000000
00000000
00000000
00fc0000
00fc0000
01f80000
01f80000
00000000
00000000
00000000
00000000
07e00000
07e00000
07800000
0f000000
3c000000
3c000000
00000000
00000000
ENDCHAR
STARTCHAR U+003A
ENCODING 58
SWIDTH 1000 0
DWIDTH 20 0
BBX 26 20 -3 -4
BITMAP
00000000
00000000
00000000
00000000
00fc0000
00fc0000
01f80000
01f80000
00000000
00000000
00000000
00000000
07e00000
07e00000
07e00000
0fc00000
00000000
00000000
00000000
00000000
ENDCHAR
STARTCHAR U+0039
ENCODING 57
SWIDTH 1000 0
DWIDTH 20 0
BBX 26 20 -3 -4
BITMAP
00000000
00000000
01ffe000
03ffc000
0f00f000
0f00f000
1e07e000
1e07e000
07fee000
0ffdc000
0003c000
0003c000
001e0000
001e0000
1ff80000
3ff00000
00000000
00000000
00000000
00000000
ENDCHAR
STARTCHAR U+0038
ENCODING 56
SWIDTH 1000 0
DWIDTH 20 0
BBX 26 20 -3 -4
BITMAP
00000000
00000000
01ffe000
03ffc000
0f00f000
0f00f000
1e01e000
1e01e000
07ff8000
0fff0000
3c03c000
3c03c000
78078000
78078000
1ffe0000
3ffc0000
00000000
00000000
00000000
00000000
ENDCHAR
STARTCHAR U+0037
ENCODING 55
SWIDTH 1000 0
DWIDTH 20 0
BBX 26 20 -3 -4
BITMAP
00000000
00000000
07fff800
0ffff000
0000f000
0000f000
00078000
00078000
001e0000
003c0000
00f00000
00f00000
07800000
07800000
07800000
0f000000
00000000
00000000
00000000
00000000
ENDCHAR
STARTCHAR U+0036
ENCODING 54
SWIDTH 1000 0
DWIDTH 20 0
BBX 26 20 -3 -4
BITMAP
00000000
00000000
007fe000
00ffc000
03c00000
03c00000
1e000000
1e000000
1eff8000
3dff0000
3f03c000
3f03c000
78078000
78078000
1ffe0000
3ffc0000
00000000
00000000
00000000
00000000
ENDCHAR
STARTCHAR U+0035
ENCODING 53
SWIDTH 1000 0
DWIDTH 20 0
BBX 26 20 -3 -4
BITMAP
00000000
00000000
07fff800
0ffff000
0f000000
0f000000
1eff8000
1eff8000
1f81e000
3f03c000
0003c000
0003c000
78078000
78078000
1ffe0000
3ffc0000
00000000
00000000
00000000
00000000
ENDCHAR
STARTCHAR U+0034
ENCODING 52
SWIDTH 1000 0
DWIDTH 20 0
BBX 26 20 -3 -4
BITMAP
00000000
00000000
00078000
000f0000
003f0000
003f0000
01ee0000
01ee0000
079e0000
0f3c0000
3fffc000
3fffc000
00780000
00780000
00780000
00f00000
00000000
00000000
00000000
00000000
ENDCHAR
STARTCHAR U+0033
ENCODING 51
SWIDTH 1000 0
DWIDTH 20 0
BBX 26 20 -3 -4
BITMAP
00000000
00000000
07fff800
0ffff000
0003c000
0003c000
001e0000
001e0000
007f8000
00ff0000
0003c000
0003c000
78078000
78078000
1ffe0000
3ffc0000
00000000
00000000
00000000
00000000
ENDCHAR
STARTCHAR U+0032
ENCODING 50
SWIDTH 1000 0
DWIDTH 20 0
BBX 26 20 -3 -4
BITMAP
00000000
00000000
01ffe000
03ffc000
0f00f000
0f00f000
0001e000
0001e000
007f8000
00ff0000
0fc00000
0fc00000
78000000
78000000
7fff8000
ffff0000
00000000
00000000
00000000
00000000
ENDCHAR
STARTCHAR U+0031
ENCODING 49
SWIDTH 1000 0
DWIDTH 20 0
BBX 26 20 -3 -4
BITMAP
00000000
00000000
001e0000
003c0000
00fc0000
00fc0000
07b80000
07b80000
00780000
00f00000
00f00000
00f00000
01e00000
01e00000
1ffe0000
3ffc0000
00000000
00000000
00000000
00000000
ENDCHAR
STARTCHAR U+0030
ENCODING 48
SWIDTH 1000 0
DWIDTH 20 0
BBX 26 20 -3 -4
BITMAP
00000000
00000000
007f8000
00ff0000
03c3c000
03c3c000
1e01e000
1e01e000
1e01e000
3c03c000
3c03c000
3c03c000
1e1e0000
1e1e0000
07f80000
0ff00000
00000000
00000000
00000000
00000000
ENDCHAR
STARTCHAR U+002F
ENCODING 47
SWIDTH 1000 0
DWIDTH 20 0
BBX 26 20 -3 -4
BITMAP
00000000
00000000
00007800
0000f000
0003c000
0003c000
001e0000
001e0000
00780000
00f00000
03c00000
03c00000
1e000000
1e000000
78000000
f0000000
00000000
00000000
00000000
00000000
ENDCHAR
STARTCHAR U+002E
ENCODING 46
SWIDTH 1000 0
DWIDTH 20 0
BBX 26 20 -3 -4
BITMAP
00000000
00000000
00000000
00000000
00000000
00000000
00000000
00000000
00000000
00000000
00000000
00000000
07e00000
07e00000
07e00000
0fc00000
00000000
00000000
00000000
00000000
ENDCHAR
STARTCHAR U+002D
ENCODING 45
SWIDTH 1000 0
DWIDTH 20 0
BBX 26 20 -3 -4
BITMAP
00000000
00000000
00000000
00000000
00000000
00000000
00000000
00000000
1fffe000
3fffc000
00000000
00000000
00000000
00000000
00000000
00000000
00000000
00000000
00000000
00000000
ENDCHAR
STARTCHAR U+002C
ENCODING 44
SWIDTH 1000 0
DWIDTH 20 0
BBX 26 20 -3 -4
BITMAP
00000000
00000000
00000000
00000000
00000000
00000000
00000000
00000000
00000000
00000000
00000000
00000000
07e00000
07e00000
07800000
0f000000
3c000000
3c000000
00000000
00000000
ENDCHAR
STARTCHAR U+002B
ENCODING 43
SWIDTH 1000 0
DWIDTH 20 0
BBX 26 20 -3 -4
BITMAP
00000000
00000000
00000000
00000000
003c0000
003c0000
00780000
00780000
1fffe000
3fffc000
00f00000
00f00000
01e00000
01e00000
00000000
00000000
00000000
00000000
00000000
00000000
ENDCHAR
STARTCHAR U+002A
ENCODING 42
SWIDTH 1000 0
DWIDTH 20 0
BBX 26 20 -3 -4
BITMAP
00000000
00000000
00000000
00000000
03c3c000
03c3c000
01ee0000
01ee0000
1fffe000
3fffc000
03dc0000
03dc0000
1e1e0000
1e1e0000
00000000
00000000
00000000
00000000
00000000
00000000
ENDCHAR
STARTCHAR U+0029
ENCODING 41
SWIDTH 1000 0
DWIDTH 20 0
BBX 26 20 -3 -4
BITMAP
00000000
00000000
00780000
00f00000
003c0000
003c0000
001e0000
001e0000
001e0000
003c0000
003c0000
003c0000
01e00000
01e00000
07800000
0f000000
00000000
00000000
00000000
00000000
ENDCHAR
STARTCHAR U+0028
ENCODING 40
SWIDTH 1000 0
DWIDTH 20 0
BBX 26 20 -3 -4
BITMAP
00000000
00000000
00078000
000f0000
003c0000
003c0000
01e00000
01e00000
01e00000
03c00000
03c00000
03c00000
01e00000
01e00000
00780000
00f00000
00000000
00000000
00000000
00000000
ENDCHAR
STARTCHAR U+0027
ENCODING 39
SWIDTH 1000 0
DWIDTH 20 0
BBX 26 20 -3 -4
BITMAP
00000000
00000000
001f8000
003f0000
003c0000
003c0000
01e00000
01e00000
00000000
00000000
00000000
00000000
00000000
00000000
00000000
00000000
00000000
00000000
00000000
00000000
ENDCHAR
STARTCHAR U+0026
ENCODING 38
SWIDTH 1000 0
DWIDTH 20 0
BBX 26 20 -3 -4
BITMAP
00000000
00000000
01fe0000
03fc0000
0f0f0000
0f0f0000
1e1e0000
1e1e0000
07f80000
0ff00000
3c3dc000
3c3dc000
781e0000
781e0000
1ffb8000
3ff70000
00000000
00000000
00000000
00000000
ENDCHAR
STARTCHAR U+0025
ENCODING 37
SWIDTH 1000 0
DWIDTH 20 0
BBX 26 20 -3 -4
BITMAP
00000000
00000000
01e07800
03c0f000
0f73c000
0f73c000
079e0000
079e0000
00780000
00f00000
03cf0000
03cf0000
1e7b8000
1e7b8000
781e0000
f03c0000
00000000
00000000
00000000
00000000
ENDCHAR
STARTCHAR U+0024
ENCODING 36
SWIDTH 1000 0
DWIDTH 20 0
BBX 26 20 -3 -4
BITMAP
00000000
00000000
001e0000
003c0000
03ffc000
03ffc000
1e780000
1e780000
07ff8000
0fff0000
00f3c000
00f3c000
1ffe0000
1ffe0000
01e00000
03c00000
00000000
00000000
00000000
00000000
ENDCHAR
STARTCHAR U+0023
ENCODING 35
SWIDTH 1000 0
DWIDTH 20 0
BBX 26 20 -3 -4
BITMAP
00000000
00000000
01e78000
03cf0000
03cf0000
03cf0000
1fff8000
1fff8000
079e0000
0f3c0000
3fff0000
3fff0000
1e780000
1e780000
1e780000
3cf00000
00000000
00000000
00000000
00000000
ENDCHAR
STARTCHAR U+0022
ENCODING 34
SWIDTH 1000 0
DWIDTH 20 0
BBX 26 20 -3 -4
BITMAP
00000000
00000000
01e78000
03cf0000
03cf0000
03cf0000
079e0000
079e0000
00000000
00000000
00000000
00000000
00000000
00000000
00000000
00000000
00000000
00000000
00000000
00000000
ENDCHAR
STARTCHAR U+0021
ENCODING 33
SWIDTH 1000 0
DWIDTH 20 0
BBX 26 20 -3 -4
BITMAP
00000000
00000000
001e0000
003c0000
003c0000
003c0000
00780000
00780000
00780000
00f00000
00f00000
00f00000
00000000
00000000
01e00000
03c00000
00000000
00000000
00000000
00000000
ENDCHAR
STARTCHAR U+2E2E
ENCODING 11822
SWIDTH 1000 0
DWIDTH 20 0
BBX 26 20 -3 -4
BITMAP
00000000
00000000
01ffe000
03ffc000
0f00f000
0f00f000
07e00000
07e00000
00780000
00f00000
00f00000
00f00000
00000000
00000000
01e00000
03c00000
00000000
00000000
00000000
00000000
ENDCHAR
STARTCHAR U+00b7
ENCODING 183
SWIDTH 1000 0
DWIDTH 20 0
BBX 26 20 -3 -4
BITMAP
00000000
00000000
00000000
00000000
00000000
00000000
00000000
00000000
00780000
00f00000
00000000
00000000
00000000
00000000
00000000
00000000
00000000
00000000
00000000
00000000
ENDCHAR
STARTCHAR U+00A3
ENCODING 163
SWIDTH 1000 0
DWIDTH 20 0
BBX 26 20 -3 -4
BITMAP
00000000
00000000
001fe000
003fc000
00f0f000
00f0f000
01e00000
01e00000
1ffe0000
3ffc0000
03c00000
03c00000
1ff80000
1ff80000
7b9f8000
f73f0000
3c000000
3c000000
00000000
00000000
ENDCHAR
STARTCHAR U+2260
ENCODING 8800
SWIDTH 1000 0
DWIDTH 20 0
BBX 26 20 -3 -4
BITMAP
00000000
00000000
00007800
0000f000
0003c000
0003c000
1fffe000
1fffe000
00780000
00f00000
3fffc000
3fffc000
1e000000
1e000000
78000000
f0000000
00000000
00000000
00000000
00000000
ENDCHAR
STARTCHAR U+03C0
ENCODING 960
SWIDTH 1000 0
DWIDTH 20 0
BBX 26 20 -3 -4
BITMAP
00000000
00000000
00000000
00000000
00000000
00000000
1fffe000
1fffe000
01e78000
03cf0000
03cf0000
03cf0000
079e0000
079e0000
1e1e0000
3c3c0000
00000000
00000000
00000000
00000000
ENDCHAR
STARTCHAR U+2265
ENCODING 8805
SWIDTH 1000 0
DWIDTH 20 0
BBX 26 20 -3 -4
BITMAP
00000000
00000000
07800000
0f000000
00f00000
00f00000
001e0000
001e0000
0001e000
0003c000
003c0000
003c0000
07800000
07800000
78000000
f0000000
ffff0000
ffff0000
00000000
00000000
ENDCHAR
STARTCHAR U+2264
ENCODING 8804
SWIDTH 1000 0
DWIDTH 20 0
BBX 26 20 -3 -4
BITMAP
00000000
00000000
00007800
0000f000
000f0000
000f0000
01e00000
01e00000
1e000000
3c000000
03c00000
03c00000
00780000
00780000
00078000
000f0000
ffff0000
ffff0000
00000000
00000000
ENDCHAR
STARTCHAR U+2502
ENCODING 9474
SWIDTH 1000 0
DWIDTH 20 0
BBX 26 20 -3 -4
BITMAP
001e0000
001e0000
001e0000
003c0000
003c0000
003c0000
00780000
00780000
00780000
00f00000
00f00000
00f00000
01e00000
01e00000
01e00000
03c00000
03c00000
03c00000
07800000
07800000
ENDCHAR
STARTCHAR U+252C
ENCODING 9516
SWIDTH 1000 0
DWIDTH 20 0
BBX 26 20 -3 -4
BITMAP
00000000
00000000
00000000
00000000
00000000
00000000
00000000
00000000
1fffff00
3ffffe00
00f00000
00f00000
01e00000
01e00000
01e00000
03c00000
03c00000
03c00000
07800000
07800000
ENDCHAR
STARTCHAR U+2534
ENCODING 9524
SWIDTH 1000 0
DWIDTH 20 0
BBX 26 20 -3 -4
BITMAP
001e0000
001e0000
001e0000
003c0000
003c0000
003c0000
00780000
00780000
1fffff00
3ffffe00
00000000
00000000
00000000
00000000
00000000
00000000
00000000
00000000
00000000
00000000
ENDCHAR
STARTCHAR U+2524
ENCODING 9508
SWIDTH 1000 0
DWIDTH 20 0
BBX 26 20 -3 -4
BITMAP
001e0000
001e0000
001e0000
003c0000
003c0000
003c0000
00780000
00780000
1ff80000
3ff00000
00f00000
00f00000
01e00000
01e00000
01e00000
03c00000
03c00000
03c00000
07800000
07800000
ENDCHAR
STARTCHAR U+251C
ENCODING 9500
SWIDTH 1000 0
DWIDTH 20 0
BBX 26 20 -3 -4
BITMAP
001e0000
001e0000
001e0000
003c0000
003c0000
003c0000
00780000
00780000
007fff00
00fffe00
00f00000
00f00000
01e00000
01e00000
01e00000
03c00000
03c00000
03c00000
07800000
07800000
ENDCHAR
STARTCHAR U+23BD
ENCODING 9149
SWIDTH 1000 0
DWIDTH 20 0
BBX 26 20 -3 -4
BITMAP
00000000
00000000
00000000
00000000
00000000
00000000
00000000
00000000
00000000
00000000
00000000
00000000
00000000
00000000
00000000
00000000
fffff800
fffff800
00000000
00000000
ENDCHAR
STARTCHAR U+23BC
ENCODING 9148
SWIDTH 1000 0
DWIDTH 20 0
BBX 26 20 -3 -4
BITMAP
00000000
00000000
00000000
00000000
00000000
00000000
00000000
00000000
00000000
00000000
00000000
00000000
7ffffc00
7ffffc00
00000000
00000000
00000000
00000000
00000000
00000000
ENDCHAR
STARTCHAR U+2500
ENCODING 9472
SWIDTH 1000 0
DWIDTH 20 0
BBX 26 20 -3 -4
BITMAP
00000000
00000000
00000000
00000000
00000000
00000000
00000000
00000000
1fffff00
3ffffe00
00000000
00000000
00000000
00000000
00000000
00000000
00000000
00000000
00000000
00000000
ENDCHAR
STARTCHAR U+23BB
ENCODING 9147
SWIDTH 1000 0
DWIDTH 20 0
BBX 26 20 -3 -4
BITMAP
00000000
00000000
00000000
00000000
0fffff80
0fffff80
00000000
00000000
00000000
00000000
00000000
00000000
00000000
00000000
00000000
00000000
00000000
00000000
00000000
00000000
ENDCHAR
STARTCHAR U+23BA
ENCODING 9146
SWIDTH 1000 0
DWIDTH 20 0
BBX 26 20 -3 -4
BITMAP
07ffffc0
07ffffc0
00000000
00000000
00000000
00000000
00000000
00000000
00000000
00000000
00000000
00000000
00000000
00000000
00000000
00000000
00000000
00000000
00000000
00000000
ENDCHAR
STARTCHAR U+253C
ENCODING 9532
SWIDTH 1000 0
DWIDTH 20 0
BBX 26 20 -3 -4
BITMAP
001e0000
001e0000
001e0000
003c0000
003c0000
003c0000
00780000
00780000
1fffff00
3ffffe00
00f00000
00f00000
01e00000
01e00000
01e00000
03c00000
03c00000
03c00000
07800000
07800000
ENDCHAR
STARTCHAR U+2514
ENCODING 9492
SWIDTH 1000 0
DWIDTH 20 0
BBX 26 20 -3 -4
BITMAP
001e0000
001e0000
001e0000
003c0000
003c0000
003c0000
00780000
00780000
007fff00
00fffe00
00000000
00000000
00000000
00000000
00000000
00000000
00000000
00000000
00000000
00000000
ENDCHAR
STARTCHAR U+250C
ENCODING 9484
SWIDTH 1000 0
DWIDTH 20 0
BBX 26 20 -3 -4
BITMAP
00000000
00000000
00000000
00000000
00000000
00000000
00000000
00000000
007fff00
00fffe00
00f00000
00f00000
01e00000
01e00000
01e00000
03c00000
03c00000
03c00000
07800000
07800000
ENDCHAR
STARTCHAR U+2510
ENCODING 9488
SWIDTH 1000 0
DWIDTH 20 0
BBX 26 20 -3 -4
BITMAP
00000000
00000000
00000000
00000000
00000000
00000000
00000000
00000000
1ff80000
3ff00000
00f00000
00f00000
01e00000
01e00000
01e00000
03c00000
03c00000
03c00000
07800000
07800000
ENDCHAR
STARTCHAR U+2518
ENCODING 9496
SWIDTH 1000 0
DWIDTH 20 0
BBX 26 20 -3 -4
BITMAP
001e0000
001e0000
001e0000
003c0000
003c0000
003c0000
00780000
00780000
1ff80000
3ff00000
00000000
00000000
00000000
00000000
00000000
00000000
00000000
00000000
00000000
00000000
ENDCHAR
STARTCHAR U+240B
ENCODING 9227
SWIDTH 1000 0
DWIDTH 20 0
BBX 26 20 -3 -4
BITMAP
00000000
00000000
07878000
0f0f0000
0f0f0000
0f0f0000
07b80000
07b80000
07b80000
0f700000
03ffc000
03ffc000
00780000
00780000
00780000
00f00000
00f00000
00f00000
01e00000
01e00000
ENDCHAR
STARTCHAR U+2424
ENCODING 9252
SWIDTH 1000 0
DWIDTH 20 0
BBX 26 20 -3 -4
BITMAP
00000000
00000000
07878000
0f0f0000
0fcf0000
0fcf0000
1eee0000
1eee0000
1e7e0000
3cfc0000
3cfc0000
3cfc0000
01e00000
01e00000
01e00000
03c00000
03c00000
03c00000
07fe0000
07fe0000
ENDCHAR
STARTCHAR U+00B1
ENCODING 177
SWIDTH 1000 0
DWIDTH 20 0
BBX 26 20 -3 -4
BITMAP
00000000
00000000
00000000
00000000
003c0000
003c0000
00780000
00780000
1fffe000
3fffc000
00f00000
00f00000
01e00000
01e00000
7fff8000
ffff0000
00000000
00000000
00000000
00000000
ENDCHAR
STARTCHAR U+00B0
ENCODING 176
SWIDTH 1000 0
DWIDTH 20 0
BBX 26 20 -3 -4
BITMAP
00000000
00000000
007f8000
00ff0000
03c3c000
03c3c000
01fe0000
01fe0000
00000000
00000000
00000000
00000000
00000000
00000000
00000000
00000000
00000000
00000000
00000000
00000000
ENDCHAR
STARTCHAR U+240A
ENCODING 9226
SWIDTH 1000 0
DWIDTH 20 0
BBX 26 20 -3 -4
BITMAP
00000000
00000000
07800000
0f000000
0f000000
0f000000
1e000000
1e000000
1e000000
3c000000
3fffc000
3fffc000
01e00000
01e00000
01fe0000
03fc0000
03c00000
03c00000
07800000
07800000
ENDCHAR
STARTCHAR U+240D
ENCODING 9229
SWIDTH 1000 0
DWIDTH 20 0
BBX 26 20 -3 -4
BITMAP
00000000
00000000
01fe0000
03fc0000
0f000000
0f000000
1e000000
1e000000
1e000000
3c000000
0fff0000
0fff0000
01e78000
01e78000
01fe0000
03fc0000
03cf0000
03cf0000
079e0000
079e0000
ENDCHAR
STARTCHAR U+240C
ENCODING 9228
SWIDTH 1000 0
DWIDTH 20 0
BBX 26 20 -3 -4
BITMAP
00000000
00000000
07fe0000
0ffc0000
0f000000
0f000000
1fe00000
1fe00000
1e000000
3c000000
3cffc000
3cffc000
01e00000
01e00000
01fe0000
03fc0000
03c00000
03c00000
07800000
07800000
ENDCHAR
STARTCHAR U+2409
ENCODING 9225
SWIDTH 1000 0
DWIDTH 20 0
BBX 26 20 -3 -4
BITMAP
00000000
00000000
079e0000
0f3c0000
0f3c0000
0f3c0000
1ff80000
1ff80000
1e780000
3cf00000
3dffc000
3dffc000
00780000
00780000
00780000
00f00000
00f00000
00f00000
01e00000
01e00000
ENDCHAR
STARTCHAR U+2592
ENCODING 9618
SWIDTH 1000 0
DWIDTH 20 0
BBX 26 20 -3 -4
BITMAP
00000000
00000000
079e7800
0f3cf000
03c3c000
03c3c000
1e79e000
1e79e000
07878000
0f0f0000
3cf3c000
3cf3c000
1e1e0000
1e1e0000
79e78000
f3cf0000
00000000
00000000
00000000
00000000
ENDCHAR
STARTCHAR U+25C6
ENCODING 9670
SWIDTH 1000 0
DWIDTH 20 0
BBX 26 20 -3 -4
BITMAP
00000000
00000000
001e0000
003c0000
00ff0000
00ff0000
07ff8000
07ff8000
1fffe000
3fffc000
0fff0000
0fff0000
07f80000
07f80000
01e00000
03c00000
00000000
00000000
00000000
00000000
ENDCHAR
STARTCHAR U+0020
ENCODING 32
SWIDTH 1000 0
DWIDTH 20 0
BBX 26 20 -3 -4
BITMAP
00000000
00000000
00000000
00000000
00000000
00000000
00000000
00000000
00000000
00000000
00000000
00000000
00000000
00000000
00000000
00000000
00000000
00000000
00000000
00000000
ENDCHAR
ENDFONT
